<svg width="390" height="130" viewBox="0 0 390 130" fill="none" xmlns="http://www.w3.org/2000/svg">
<rect x="1.625" y="1.625" width="386.75" height="126.75" rx="17.875" fill="#11141C"/>
<rect x="1.625" y="1.625" width="386.75" height="126.75" rx="17.875" stroke="white" stroke-width="3.25"/>
<path d="M57.8674 63.2505L26.293 97.5193C26.2959 97.5253 26.2959 97.5344 26.2989 97.5405C27.2686 101.262 30.5901 104 34.5343 104C36.112 104 37.5918 103.563 38.8611 102.799L38.9619 102.738L74.5013 81.7677L57.8674 63.2505Z" fill="#EA4335"/>
<path d="M89.8083 57.4146L89.7786 57.3934L74.4348 48.2985L57.1484 64.0288L74.497 81.7637L89.7579 72.7598C92.4328 71.2798 94.2507 68.3958 94.2507 65.072C94.2507 61.7665 92.4595 58.8976 89.8083 57.4146Z" fill="#FBBC04"/>
<path d="M26.2906 32.4786C26.1008 33.1943 26 33.9464 26 34.7227L26 95.2784C26 96.0548 26.1008 96.8069 26.2936 97.5195L58.9505 64.1272L26.2906 32.4786Z" fill="#4285F4"/>
<path d="M58.1017 65L74.442 48.2932L38.9441 27.2467C37.6541 26.4552 36.1476 26.0003 34.5373 26.0003C30.593 26.0003 27.2657 28.7448 26.2959 32.4689C26.2959 32.4719 26.293 32.475 26.293 32.478L58.1017 65Z" fill="#34A853"/>
<path d="M141.733 36.5575C141.733 39.8075 140.768 42.3967 138.84 44.325C136.673 46.6217 133.824 47.77 130.293 47.77C126.913 47.77 124.053 46.6 121.713 44.26C119.373 41.92 118.203 39.0383 118.203 35.615C118.203 32.1917 119.373 29.31 121.713 26.97C124.053 24.63 126.913 23.46 130.293 23.46C132.004 23.46 133.618 23.7633 135.135 24.37C136.652 24.9767 137.898 25.8325 138.873 26.9375L136.728 29.0825C136.013 28.2158 135.081 27.5442 133.933 27.0675C132.806 26.5692 131.593 26.32 130.293 26.32C127.758 26.32 125.613 27.1975 123.858 28.9525C122.124 30.7292 121.258 32.95 121.258 35.615C121.258 38.28 122.124 40.5008 123.858 42.2775C125.613 44.0325 127.758 44.91 130.293 44.91C132.611 44.91 134.539 44.26 136.078 42.96C137.616 41.66 138.504 39.8725 138.743 37.5975L130.293 37.5975L130.293 34.8025L141.57 34.8025C141.678 35.4092 141.733 35.9942 141.733 36.5575ZM158.95 23.98L158.95 26.84L148.355 26.84L148.355 34.2175L157.91 34.2175L157.91 37.0125L148.355 37.0125L148.355 44.39L158.95 44.39L158.95 47.25L145.365 47.25L145.365 23.98L158.95 23.98ZM170.91 26.84L170.91 47.25L167.92 47.25L167.92 26.84L161.42 26.84L161.42 23.98L177.41 23.98L177.41 26.84L170.91 26.84ZM190.663 47.25L187.673 47.25L187.673 23.98L190.663 23.98L190.663 47.25ZM203.283 26.84L203.283 47.25L200.293 47.25L200.293 26.84L193.793 26.84L193.793 23.98L209.783 23.98L209.783 26.84L203.283 26.84ZM242.193 35.615C242.193 39.06 241.045 41.9417 238.748 44.26C236.43 46.6 233.592 47.77 230.233 47.77C226.853 47.77 224.015 46.6 221.718 44.26C219.422 41.9417 218.273 39.06 218.273 35.615C218.273 32.17 219.422 29.2883 221.718 26.97C224.015 24.63 226.853 23.46 230.233 23.46C233.613 23.46 236.452 24.6408 238.748 27.0025C241.045 29.3208 242.193 32.1917 242.193 35.615ZM221.328 35.615C221.328 38.3017 222.173 40.5225 223.863 42.2775C225.575 44.0325 227.698 44.91 230.233 44.91C232.768 44.91 234.881 44.0325 236.571 42.2775C238.282 40.5442 239.138 38.3233 239.138 35.615C239.138 32.9067 238.282 30.6858 236.571 28.9525C234.881 27.1975 232.768 26.32 230.233 26.32C227.698 26.32 225.575 27.1975 223.863 28.9525C222.173 30.7075 221.328 32.9283 221.328 35.615ZM248.712 47.25L245.722 47.25L245.722 23.98L249.362 23.98L260.672 42.0825L260.802 42.0825L260.672 37.5975L260.672 23.98L263.662 23.98L263.662 47.25L260.542 47.25L248.712 28.27L248.582 28.27L248.712 32.755L248.712 47.25Z" fill="white"/>
<path d="M303.934 102.081L309.228 102.081L309.228 66.294L303.934 66.294L303.934 102.081ZM351.613 79.185L345.545 94.7012L345.364 94.7012L339.066 79.185L333.364 79.185L342.808 100.87L337.426 112.934L342.944 112.934L357.5 79.185L351.613 79.185ZM321.594 98.0163C319.857 98.0163 317.44 97.1431 317.44 94.976C317.44 92.2163 320.45 91.1571 323.052 91.1571C325.378 91.1571 326.476 91.6638 327.889 92.3537C327.477 95.6688 324.649 98.0163 321.594 98.0163ZM322.232 78.4035C318.399 78.4035 314.428 80.1068 312.788 83.8828L317.486 85.861C318.49 83.8828 320.359 83.2358 322.323 83.2358C325.06 83.2358 327.843 84.8933 327.889 87.842L327.889 88.2084C326.93 87.6559 324.879 86.8286 322.368 86.8286C317.304 86.8286 312.147 89.6369 312.147 94.8844C312.147 99.6738 316.3 102.76 320.952 102.76C324.513 102.76 326.476 101.148 327.707 99.2587L327.889 99.2587L327.889 102.021L332.998 102.021L332.998 88.3C332.998 81.9476 328.3 78.4035 322.232 78.4035M289.517 83.5421L281.988 83.5421L281.988 71.2752L289.517 71.2752C293.474 71.2752 295.721 74.5817 295.721 77.4072C295.721 80.1812 293.474 83.5421 289.517 83.5421ZM289.381 66.294L276.697 66.294L276.697 102.081L281.988 102.081L281.988 88.5233L289.381 88.5233C295.247 88.5233 301.015 84.2349 301.015 77.4072C301.015 70.5795 295.247 66.294 289.381 66.294M220.215 98.022C216.558 98.022 213.497 94.9331 213.497 90.6904C213.497 86.402 216.558 83.2644 220.215 83.2644C223.826 83.2644 226.657 86.402 226.657 90.6904C226.657 94.9331 223.826 98.022 220.215 98.022ZM226.294 81.1889L226.11 81.1889C224.921 79.7604 222.637 78.4693 219.758 78.4693C213.724 78.4693 208.195 83.8169 208.195 90.6904C208.195 97.5153 213.724 102.82 219.758 102.82C222.637 102.82 224.921 101.529 226.11 100.052L226.294 100.052L226.294 101.807C226.294 106.464 223.826 108.955 219.849 108.955C216.603 108.955 214.592 106.602 213.769 104.618L209.153 106.556C210.478 109.785 213.999 113.75 219.849 113.75C226.064 113.75 231.321 110.06 231.321 101.068L231.321 79.205L226.294 79.205L226.294 81.1889ZM234.978 102.081L240.28 102.081L240.28 66.2911L234.978 66.2911L234.978 102.081ZM248.093 90.2753C247.956 85.5718 251.704 83.1728 254.399 83.1728C256.504 83.1728 258.286 84.232 258.878 85.755L248.093 90.2753ZM264.547 86.2159C263.542 83.4963 260.478 78.4693 254.217 78.4693C248.002 78.4693 242.839 83.4018 242.839 90.6446C242.839 97.4695 247.956 102.82 254.81 102.82C260.342 102.82 263.542 99.4076 264.867 97.4237L260.754 94.6554C259.383 96.6851 257.508 98.022 254.81 98.022C252.115 98.022 250.195 96.7767 248.961 94.3347L265.094 87.5987L264.547 86.2159ZM136.013 82.2052L136.013 87.3696L148.26 87.3696C147.894 90.2753 146.935 92.3966 145.474 93.871C143.689 95.6716 140.901 97.6555 136.013 97.6555C128.47 97.6555 122.574 91.5206 122.574 83.9114C122.574 76.2993 128.47 70.1673 136.013 70.1673C140.081 70.1673 143.051 71.7819 145.244 73.8574L148.855 70.2131C145.792 67.2616 141.726 65 136.013 65C125.684 65 117 73.4881 117 83.9114C117 94.3347 125.684 102.82 136.013 102.82C141.587 102.82 145.792 100.973 149.082 97.5153C152.467 94.1029 153.516 89.3077 153.516 85.4315C153.516 84.232 153.426 83.127 153.241 82.2052L136.013 82.2052ZM167.443 98.022C163.786 98.022 160.631 94.9789 160.631 90.6446C160.631 86.2617 163.786 83.2644 167.443 83.2644C171.097 83.2644 174.251 86.2617 174.251 90.6446C174.251 94.9789 171.097 98.022 167.443 98.022ZM167.443 78.4693C160.768 78.4693 155.329 83.5879 155.329 90.6446C155.329 97.6555 160.768 102.82 167.443 102.82C174.115 102.82 179.553 97.6555 179.553 90.6446C179.553 83.5879 174.115 78.4693 167.443 78.4693ZM193.863 98.022C190.206 98.022 187.051 94.9789 187.051 90.6446C187.051 86.2617 190.206 83.2644 193.863 83.2644C197.519 83.2644 200.671 86.2617 200.671 90.6446C200.671 94.9789 197.519 98.022 193.863 98.022ZM193.863 78.4693C187.19 78.4693 181.752 83.5879 181.752 90.6446C181.752 97.6555 187.19 102.82 193.863 102.82C200.535 102.82 205.973 97.6555 205.973 90.6446C205.973 83.5879 200.535 78.4693 193.863 78.4693Z" fill="white"/>
</svg>
