<svg width="413" height="279" viewBox="0 0 413 279" fill="none" xmlns="http://www.w3.org/2000/svg">
<g clip-path="url(#clip0_1636_13549)">
<g clip-path="url(#paint0_angular_1636_13549_clip_path)" data-figma-skip-parse="true"><g transform="matrix(0.139564 0.00109893 -0.00109893 0.139564 139.564 139.564)"><foreignObject x="-1026.94" y="-1026.94" width="2053.87" height="2053.87"><div xmlns="http://www.w3.org/1999/xhtml" style="background:conic-gradient(from 90deg,rgba(255, 92, 0, 1) 0deg,rgba(232, 223, 54, 1) 81.3462deg,rgba(45, 207, 72, 1) 169.615deg,rgba(47, 156, 224, 1) 264.808deg,rgba(122, 71, 211, 1) 360deg);height:100%;width:100%;opacity:1"></div></foreignObject></g></g><circle cx="139.564" cy="139.564" r="139.564" data-figma-gradient-fill="{&#34;type&#34;:&#34;GRADIENT_ANGULAR&#34;,&#34;stops&#34;:[{&#34;color&#34;:{&#34;r&#34;:1.0,&#34;g&#34;:0.36078432202339172,&#34;b&#34;:0.0,&#34;a&#34;:1.0},&#34;position&#34;:0.0},{&#34;color&#34;:{&#34;r&#34;:0.91312348842620850,&#34;g&#34;:0.87822979688644409,&#34;b&#34;:0.21524801850318909,&#34;a&#34;:1.0},&#34;position&#34;:0.22596153616905212},{&#34;color&#34;:{&#34;r&#34;:0.17889180779457092,&#34;g&#34;:0.81304460763931274,&#34;b&#34;:0.28458392620086670,&#34;a&#34;:1.0},&#34;position&#34;:0.47115385532379150},{&#34;color&#34;:{&#34;r&#34;:0.18543717265129089,&#34;g&#34;:0.61460518836975098,&#34;b&#34;:0.88138520717620850,&#34;a&#34;:1.0},&#34;position&#34;:0.73557692766189575},{&#34;color&#34;:{&#34;r&#34;:0.47991114854812622,&#34;g&#34;:0.27847674489021301,&#34;b&#34;:0.82784330844879150,&#34;a&#34;:1.0},&#34;position&#34;:1.0}],&#34;stopsVar&#34;:[{&#34;color&#34;:{&#34;r&#34;:1.0,&#34;g&#34;:0.36078432202339172,&#34;b&#34;:0.0,&#34;a&#34;:1.0},&#34;position&#34;:0.0},{&#34;color&#34;:{&#34;r&#34;:0.91312348842620850,&#34;g&#34;:0.87822979688644409,&#34;b&#34;:0.21524801850318909,&#34;a&#34;:1.0},&#34;position&#34;:0.22596153616905212},{&#34;color&#34;:{&#34;r&#34;:0.17889180779457092,&#34;g&#34;:0.81304460763931274,&#34;b&#34;:0.28458392620086670,&#34;a&#34;:1.0},&#34;position&#34;:0.47115385532379150},{&#34;color&#34;:{&#34;r&#34;:0.18543717265129089,&#34;g&#34;:0.61460518836975098,&#34;b&#34;:0.88138520717620850,&#34;a&#34;:1.0},&#34;position&#34;:0.73557692766189575},{&#34;color&#34;:{&#34;r&#34;:0.47991114854812622,&#34;g&#34;:0.27847674489021301,&#34;b&#34;:0.82784330844879150,&#34;a&#34;:1.0},&#34;position&#34;:1.0}],&#34;transform&#34;:{&#34;m00&#34;:279.12835693359375,&#34;m01&#34;:-2.1978611946105957,&#34;m02&#34;:1.0989305973052979,&#34;m10&#34;:2.1978611946105957,&#34;m11&#34;:279.12835693359375,&#34;m12&#34;:-1.0989305973052979},&#34;opacity&#34;:1.0,&#34;blendMode&#34;:&#34;NORMAL&#34;,&#34;visible&#34;:true}"/>
<path d="M122.684 242.369C97.0364 242.369 72.4389 232.18 54.303 214.044C36.1671 195.908 25.9785 171.311 25.9785 145.663C25.9785 120.015 36.1671 95.4174 54.303 77.2815C72.4389 59.1457 97.0364 48.957 122.684 48.957L122.684 145.663L122.684 242.369Z" fill="#2C2929"/>
<path d="M118.684 237.369C93.0364 237.369 68.4389 227.18 50.303 209.044C32.1671 190.908 21.9785 166.311 21.9785 140.663C21.9785 115.015 32.1671 90.4174 50.303 72.2815C68.4389 54.1457 93.0364 43.957 118.684 43.957L118.684 140.663L118.684 237.369Z" fill="white"/>
<path d="M361.622 118.231H341.887V10.7979H361.622V78.5444L390.831 41.5134H413.365L387.888 73.5208L413.365 118.231H390.831L375.258 90.3139L361.622 108.399V118.231Z" fill="#2C2929"/>
<path d="M332.27 56.6561L317.917 71.081C317.199 69.0716 316.218 67.2774 314.974 65.6986C313.73 64.0719 312.319 62.7084 310.74 61.608C309.209 60.5076 307.535 59.6703 305.717 59.0962C303.899 58.522 302.033 58.235 300.119 58.235C297.44 58.235 294.904 58.7852 292.512 59.8856C290.167 60.986 288.11 62.5409 286.34 64.5503C284.618 66.5119 283.254 68.8563 282.249 71.5834C281.245 74.3104 280.742 77.3246 280.742 80.6258C280.742 83.305 281.245 85.8168 282.249 88.1612C283.254 90.5055 284.618 92.5628 286.34 94.333C288.11 96.1032 290.167 97.4907 292.512 98.4954C294.904 99.5001 297.44 100.002 300.119 100.002C302.033 100.002 303.875 99.7393 305.645 99.213C307.415 98.6868 309.066 97.9452 310.597 96.9883C312.176 95.9836 313.563 94.7875 314.759 93.4C316.003 91.9647 317.008 90.3859 317.773 88.6635L332.126 103.088C330.308 105.672 328.203 107.992 325.811 110.05C323.467 112.107 320.907 113.853 318.132 115.288C315.405 116.724 312.51 117.8 309.448 118.518C306.434 119.283 303.324 119.666 300.119 119.666C294.713 119.666 289.617 118.661 284.833 116.652C280.096 114.595 275.934 111.796 272.346 108.255C268.805 104.715 266.006 100.577 263.949 95.8401C261.892 91.1035 260.863 86.0321 260.863 80.6258C260.863 74.741 261.892 69.239 263.949 64.1198C266.006 59.0005 268.805 54.551 272.346 50.7714C275.934 46.9439 280.096 43.9297 284.833 41.7289C289.617 39.5281 294.713 38.4277 300.119 38.4277C303.324 38.4277 306.458 38.8344 309.52 39.6477C312.63 40.4611 315.572 41.6572 318.347 43.236C321.17 44.767 323.754 46.6568 326.098 48.9055C328.49 51.1541 330.547 53.7377 332.27 56.6561Z" fill="#2C2929"/>
<path d="M253.473 20.4861C253.473 22.3042 253.114 24.0026 252.396 25.5815C251.726 27.1603 250.793 28.5478 249.597 29.7438C248.401 30.8921 246.99 31.825 245.363 32.5427C243.784 33.2125 242.086 33.5474 240.268 33.5474C238.45 33.5474 236.727 33.2125 235.101 32.5427C233.522 31.825 232.134 30.8921 230.938 29.7438C229.79 28.5478 228.857 27.1603 228.139 25.5815C227.47 24.0026 227.135 22.3042 227.135 20.4861C227.135 18.7159 227.47 17.0414 228.139 15.4625C228.857 13.8358 229.79 12.4484 230.938 11.3001C232.134 10.104 233.522 9.1711 235.101 8.50129C236.727 7.78363 238.45 7.4248 240.268 7.4248C242.086 7.4248 243.784 7.78363 245.363 8.50129C246.99 9.1711 248.401 10.104 249.597 11.3001C250.793 12.4484 251.726 13.8358 252.396 15.4625C253.114 17.0414 253.473 18.7159 253.473 20.4861ZM250.1 118.231H230.364V41.3698H250.1V118.231Z" fill="#2C2929"/>
<path d="M173.956 118.231L144.676 41.3701H166.995L183.788 89.3094L200.509 41.3701H222.9L193.62 118.231H173.956Z" fill="#2C2929"/>
<path d="M394.814 250.102H390.078L382.47 239.552C380.605 241.227 378.619 242.806 376.514 244.289C374.457 245.724 372.28 246.992 369.983 248.092C367.687 249.145 365.319 249.982 362.878 250.604C360.486 251.226 358.046 251.537 355.558 251.537C350.152 251.537 345.057 250.532 340.272 248.523C335.536 246.466 331.373 243.643 327.785 240.055C324.245 236.418 321.446 232.136 319.389 227.209C317.331 222.233 316.303 216.827 316.303 210.99C316.303 205.201 317.331 199.818 319.389 194.842C321.446 189.867 324.245 185.561 327.785 181.925C331.373 178.289 335.536 175.442 340.272 173.385C345.057 171.327 350.152 170.299 355.558 170.299C357.281 170.299 359.051 170.442 360.869 170.729C362.735 171.016 364.529 171.495 366.251 172.165C368.022 172.786 369.672 173.624 371.203 174.676C372.734 175.729 374.026 177.021 375.079 178.552V142.669H394.814V250.102ZM375.079 210.99C375.079 208.31 374.552 205.727 373.5 203.239C372.495 200.703 371.108 198.479 369.337 196.565C367.567 194.603 365.486 193.048 363.094 191.9C360.749 190.704 358.238 190.106 355.558 190.106C352.879 190.106 350.343 190.584 347.951 191.541C345.607 192.498 343.55 193.886 341.779 195.704C340.057 197.474 338.694 199.651 337.689 202.234C336.684 204.818 336.182 207.736 336.182 210.99C336.182 213.812 336.684 216.492 337.689 219.027C338.694 221.563 340.057 223.788 341.779 225.702C343.55 227.615 345.607 229.122 347.951 230.223C350.343 231.323 352.879 231.873 355.558 231.873C358.238 231.873 360.749 231.299 363.094 230.151C365.486 228.955 367.567 227.4 369.337 225.486C371.108 223.525 372.495 221.3 373.5 218.812C374.552 216.276 375.079 213.669 375.079 210.99Z" fill="#2C2929"/>
<path d="M257.455 250.101H237.863V173.24H242.6L249.059 180.704C252.216 177.833 255.781 175.633 259.752 174.102C263.771 172.523 267.957 171.733 272.311 171.733C276.999 171.733 281.425 172.642 285.587 174.46C289.75 176.231 293.386 178.695 296.496 181.852C299.605 184.962 302.045 188.622 303.816 192.832C305.634 196.995 306.543 201.444 306.543 206.181V250.101H286.951V206.181C286.951 204.171 286.568 202.282 285.803 200.511C285.037 198.693 283.985 197.114 282.645 195.775C281.305 194.435 279.75 193.383 277.98 192.617C276.21 191.852 274.32 191.469 272.311 191.469C270.253 191.469 268.316 191.852 266.498 192.617C264.68 193.383 263.101 194.435 261.761 195.775C260.422 197.114 259.369 198.693 258.603 200.511C257.838 202.282 257.455 204.171 257.455 206.181V250.101Z" fill="#2C2929"/>
<path d="M222.863 250.102H218.126L210.519 239.552C208.653 241.227 206.668 242.806 204.563 244.289C202.505 245.724 200.329 246.992 198.032 248.093C195.736 249.145 193.367 249.982 190.927 250.604C188.535 251.226 186.095 251.537 183.607 251.537C178.201 251.537 173.106 250.628 168.321 248.81C163.585 246.992 159.422 244.361 155.834 240.916C152.294 237.423 149.495 233.165 147.437 228.142C145.38 223.118 144.352 217.401 144.352 210.99C144.352 205.009 145.38 199.531 147.437 194.556C149.495 189.532 152.294 185.226 155.834 181.638C159.422 178.049 163.585 175.275 168.321 173.313C173.106 171.304 178.201 170.299 183.607 170.299C186.095 170.299 188.559 170.61 190.999 171.232C193.439 171.854 195.807 172.715 198.104 173.815C200.4 174.916 202.577 176.208 204.635 177.691C206.74 179.174 208.701 180.777 210.519 182.499L218.126 173.385H222.863V250.102ZM203.127 210.99C203.127 208.311 202.601 205.727 201.549 203.239C200.544 200.703 199.156 198.479 197.386 196.565C195.616 194.603 193.535 193.048 191.143 191.9C188.798 190.704 186.286 190.106 183.607 190.106C180.928 190.106 178.392 190.561 176 191.47C173.656 192.379 171.598 193.718 169.828 195.488C168.106 197.259 166.742 199.46 165.738 202.091C164.733 204.674 164.231 207.641 164.231 210.99C164.231 214.339 164.733 217.329 165.738 219.96C166.742 222.544 168.106 224.721 169.828 226.491C171.598 228.261 173.656 229.601 176 230.51C178.392 231.419 180.928 231.874 183.607 231.874C186.286 231.874 188.798 231.299 191.143 230.151C193.535 228.955 195.616 227.4 197.386 225.486C199.156 223.525 200.544 221.3 201.549 218.812C202.601 216.277 203.127 213.669 203.127 210.99Z" fill="#2C2929"/>
<path d="M357.946 114.231H338.211V6.79785H357.946V74.5444L387.155 37.5134H409.689L384.213 69.5208L409.689 114.231H387.155L371.582 86.3139L357.946 104.399V114.231Z" fill="white"/>
<path d="M328.594 52.6561L314.241 67.081C313.523 65.0716 312.543 63.2774 311.299 61.6986C310.055 60.0719 308.643 58.7084 307.064 57.608C305.533 56.5076 303.859 55.6703 302.041 55.0962C300.223 54.522 298.357 54.235 296.443 54.235C293.764 54.235 291.228 54.7852 288.836 55.8856C286.492 56.986 284.434 58.5409 282.664 60.5503C280.942 62.5119 279.578 64.8563 278.574 67.5834C277.569 70.3104 277.067 73.3246 277.067 76.6258C277.067 79.305 277.569 81.8168 278.574 84.1612C279.578 86.5055 280.942 88.5628 282.664 90.333C284.434 92.1032 286.492 93.4907 288.836 94.4954C291.228 95.5001 293.764 96.0024 296.443 96.0024C298.357 96.0024 300.199 95.7393 301.969 95.213C303.739 94.6868 305.39 93.9452 306.921 92.9883C308.5 91.9836 309.887 90.7875 311.083 89.4C312.327 87.9647 313.332 86.3859 314.097 84.6635L328.451 99.0884C326.632 101.672 324.527 103.992 322.135 106.05C319.791 108.107 317.231 109.853 314.456 111.288C311.729 112.724 308.835 113.8 305.773 114.518C302.759 115.283 299.649 115.666 296.443 115.666C291.037 115.666 285.942 114.661 281.157 112.652C276.421 110.595 272.258 107.796 268.67 104.255C265.13 100.715 262.331 96.5766 260.273 91.8401C258.216 87.1035 257.188 82.0321 257.188 76.6258C257.188 70.741 258.216 65.239 260.273 60.1198C262.331 55.0005 265.13 50.551 268.67 46.7714C272.258 42.9439 276.421 39.9297 281.157 37.7289C285.942 35.5281 291.037 34.4277 296.443 34.4277C299.649 34.4277 302.782 34.8344 305.844 35.6477C308.954 36.4611 311.897 37.6572 314.672 39.236C317.494 40.767 320.078 42.6568 322.422 44.9055C324.814 47.1541 326.872 49.7377 328.594 52.6561Z" fill="white"/>
<path d="M249.797 16.4861C249.797 18.3042 249.438 20.0026 248.72 21.5815C248.051 23.1603 247.118 24.5478 245.922 25.7438C244.725 26.8921 243.314 27.825 241.687 28.5427C240.109 29.2125 238.41 29.5474 236.592 29.5474C234.774 29.5474 233.052 29.2125 231.425 28.5427C229.846 27.825 228.459 26.8921 227.263 25.7438C226.114 24.5478 225.181 23.1603 224.464 21.5815C223.794 20.0026 223.459 18.3042 223.459 16.4861C223.459 14.7159 223.794 13.0414 224.464 11.4625C225.181 9.83585 226.114 8.44838 227.263 7.30014C228.459 6.10405 229.846 5.1711 231.425 4.50129C233.052 3.78363 234.774 3.4248 236.592 3.4248C238.41 3.4248 240.109 3.78363 241.687 4.50129C243.314 5.1711 244.725 6.10405 245.922 7.30014C247.118 8.44838 248.051 9.83585 248.72 11.4625C249.438 13.0414 249.797 14.7159 249.797 16.4861ZM246.424 114.231H226.688V37.3698H246.424V114.231Z" fill="white"/>
<path d="M170.28 114.231L141 37.3701H163.319L180.112 85.3094L196.833 37.3701H219.224L189.944 114.231H170.28Z" fill="white"/>
<path d="M391.463 246.102H386.726L379.119 235.552C377.253 237.227 375.267 238.806 373.162 240.289C371.105 241.724 368.928 242.992 366.632 244.092C364.335 245.145 361.967 245.982 359.527 246.604C357.135 247.226 354.695 247.537 352.207 247.537C346.801 247.537 341.705 246.532 336.921 244.523C332.184 242.466 328.022 239.643 324.434 236.055C320.893 232.418 318.094 228.136 316.037 223.209C313.98 218.233 312.951 212.827 312.951 206.99C312.951 201.201 313.98 195.818 316.037 190.842C318.094 185.867 320.893 181.561 324.434 177.925C328.022 174.289 332.184 171.442 336.921 169.385C341.705 167.327 346.801 166.299 352.207 166.299C353.929 166.299 355.699 166.442 357.517 166.729C359.383 167.016 361.178 167.495 362.9 168.165C364.67 168.786 366.321 169.624 367.852 170.676C369.383 171.729 370.674 173.021 371.727 174.552V138.669H391.463V246.102ZM371.727 206.99C371.727 204.31 371.201 201.727 370.148 199.239C369.143 196.703 367.756 194.479 365.986 192.565C364.216 190.603 362.134 189.048 359.742 187.9C357.398 186.704 354.886 186.106 352.207 186.106C349.528 186.106 346.992 186.584 344.6 187.541C342.255 188.498 340.198 189.886 338.428 191.704C336.706 193.474 335.342 195.651 334.337 198.234C333.333 200.818 332.83 203.736 332.83 206.99C332.83 209.812 333.333 212.492 334.337 215.027C335.342 217.563 336.706 219.788 338.428 221.702C340.198 223.615 342.255 225.122 344.6 226.223C346.992 227.323 349.528 227.873 352.207 227.873C354.886 227.873 357.398 227.299 359.742 226.151C362.134 224.955 364.216 223.4 365.986 221.486C367.756 219.525 369.143 217.3 370.148 214.812C371.201 212.276 371.727 209.669 371.727 206.99Z" fill="white"/>
<path d="M254.104 246.101H234.512V169.24H239.248L245.707 176.704C248.865 173.833 252.429 171.633 256.4 170.102C260.419 168.523 264.605 167.733 268.959 167.733C273.648 167.733 278.073 168.642 282.236 170.46C286.398 172.231 290.034 174.695 293.144 177.852C296.254 180.962 298.694 184.622 300.464 188.832C302.282 192.995 303.191 197.444 303.191 202.181V246.101H283.599V202.181C283.599 200.171 283.217 198.282 282.451 196.511C281.686 194.693 280.633 193.114 279.293 191.775C277.954 190.435 276.399 189.383 274.629 188.617C272.858 187.852 270.969 187.469 268.959 187.469C266.902 187.469 264.964 187.852 263.146 188.617C261.328 189.383 259.749 190.435 258.41 191.775C257.07 193.114 256.017 194.693 255.252 196.511C254.486 198.282 254.104 200.171 254.104 202.181V246.101Z" fill="white"/>
<path d="M219.511 246.102H214.775L207.168 235.552C205.302 237.227 203.316 238.806 201.211 240.289C199.154 241.724 196.977 242.992 194.681 244.093C192.384 245.145 190.016 245.982 187.576 246.604C185.184 247.226 182.744 247.537 180.256 247.537C174.849 247.537 169.754 246.628 164.97 244.81C160.233 242.992 156.071 240.361 152.482 236.916C148.942 233.423 146.143 229.165 144.086 224.142C142.029 219.118 141 213.401 141 206.99C141 201.009 142.029 195.531 144.086 190.556C146.143 185.532 148.942 181.226 152.482 177.638C156.071 174.049 160.233 171.275 164.97 169.313C169.754 167.304 174.849 166.299 180.256 166.299C182.744 166.299 185.207 166.61 187.648 167.232C190.088 167.854 192.456 168.715 194.752 169.815C197.049 170.916 199.226 172.208 201.283 173.691C203.388 175.174 205.35 176.777 207.168 178.499L214.775 169.385H219.511V246.102ZM199.776 206.99C199.776 204.311 199.25 201.727 198.197 199.239C197.192 196.703 195.805 194.479 194.035 192.565C192.264 190.603 190.183 189.048 187.791 187.9C185.447 186.704 182.935 186.106 180.256 186.106C177.576 186.106 175.041 186.561 172.649 187.47C170.304 188.379 168.247 189.718 166.477 191.488C164.754 193.259 163.391 195.46 162.386 198.091C161.381 200.674 160.879 203.641 160.879 206.99C160.879 210.339 161.381 213.329 162.386 215.96C163.391 218.544 164.754 220.721 166.477 222.491C168.247 224.261 170.304 225.601 172.649 226.51C175.041 227.419 177.576 227.874 180.256 227.874C182.935 227.874 185.447 227.299 187.791 226.151C190.183 224.955 192.264 223.4 194.035 221.486C195.805 219.525 197.192 217.3 198.197 214.812C199.25 212.277 199.776 209.669 199.776 206.99Z" fill="white"/>
</g>
<defs>
<clipPath id="paint0_angular_1636_13549_clip_path"><circle cx="139.564" cy="139.564" r="139.564"/></clipPath><clipPath id="clip0_1636_13549">
<rect width="413" height="279" fill="white"/>
</clipPath>
</defs>
</svg>
